<?xml version="1.0" standalone="no"?>
<!DOCTYPE svg PUBLIC "-//W3C//DTD SVG 20010904//EN"
 "http://www.w3.org/TR/2001/REC-SVG-20010904/DTD/svg10.dtd">
<svg version="1.0" xmlns="http://www.w3.org/2000/svg"
 width="173.000000pt" height="173.000000pt" viewBox="0 0 173.000000 173.000000"
 preserveAspectRatio="xMidYMid meet">
<metadata>
Created by potrace 1.14, written by Peter Selinger 2001-2017
</metadata>
<g transform="translate(0.000000,173.000000) scale(0.100000,-0.100000)"
fill="#000000" stroke="none">
<path d="M1140 1616 c-65 -14 -173 -71 -523 -275 -457 -267 -494 -295 -536
-416 -36 -101 -31 -196 15 -287 50 -99 326 -418 411 -474 116 -77 294 -111
428 -82 99 21 470 195 577 270 100 70 150 166 150 286 0 163 -104 734 -146
807 -35 58 -98 113 -170 145 -74 34 -134 41 -206 26z"/>
</g>
</svg>
